<svg width="96" height="96" viewBox="0 0 96 96" fill="none" xmlns="http://www.w3.org/2000/svg">
  <rect width="96" height="96" rx="18" fill="#10241f"/>
  <path d="M16 69c14-8 50-8 64 0" stroke="#d8f3dc" stroke-width="5" stroke-linecap="round"/>
  <path d="M27 24h42l-7 30c-2 9-9 15-14 15s-12-6-14-15l-7-30z" fill="#f7c948"/>
  <path d="M34 30h28l-5 22c-1.5 6-6 10-9 10s-7.5-4-9-10l-5-22z" fill="#fff4b8"/>
  <path d="M27 29H18c1 15 8 24 18 26" stroke="#f7c948" stroke-width="6" stroke-linecap="round"/>
  <path d="M69 29h9c-1 15-8 24-18 26" stroke="#f7c948" stroke-width="6" stroke-linecap="round"/>
  <path d="M40 71h16l3 10H37l3-10z" fill="#f7c948"/>
  <circle cx="48" cy="42" r="8" fill="#173b33"/>
  <path d="M48 34v16M40 42h16" stroke="#d8f3dc" stroke-width="2.5" stroke-linecap="round"/>
</svg>
